<mxfile host="app.diagrams.net" modified="2023-09-13T03:30:53.321Z" agent="Mozilla/5.0 (Macintosh; Intel Mac OS X 10_15_7) AppleWebKit/537.36 (KHTML, like Gecko) Chrome/117.0.0.0 Safari/537.36" version="21.7.4" etag="R4LMFJJEMXKgi7Y505Db" type="github">
  <diagram name="페이지-1" id="m4giojfUuI-0CxHlLQhI">
    <mxGraphModel>
      <root>
        <mxCell id="0" />
        <mxCell id="1" parent="0" />
      </root>
    </mxGraphModel>
  </diagram>
</mxfile>
